<mxfile host="app.diagrams.net" agent="Mozilla/5.0 (Macintosh; Intel Mac OS X 10_15_7) AppleWebKit/537.36 (KHTML, like Gecko) Chrome/134.0.0.0 Safari/537.36" version="26.2.3">
  <diagram name="Сторінка-1" id="z4PwVYySTov29Nt4PK8j">
    <mxGraphModel dx="1053" dy="1885" grid="1" gridSize="10" guides="1" tooltips="1" connect="1" arrows="1" fold="1" page="1" pageScale="1" pageWidth="827" pageHeight="1169" math="0" shadow="0">
      <root>
        <mxCell id="0" />
        <mxCell id="1" parent="0" />
        <mxCell id="bwHcJ1Ja0ZGtsask7FgL-2" value="Client" style="swimlane;fontStyle=1;align=center;verticalAlign=top;childLayout=stackLayout;horizontal=1;startSize=26;horizontalStack=0;resizeParent=1;resizeParentMax=0;resizeLast=0;collapsible=1;marginBottom=0;whiteSpace=wrap;html=1;" vertex="1" parent="1">
          <mxGeometry x="335" y="355" width="160" height="140" as="geometry" />
        </mxCell>
        <mxCell id="bwHcJ1Ja0ZGtsask7FgL-3" value="+ FirstName: string&lt;div&gt;+ LastName: string&lt;/div&gt;&lt;div&gt;+ FullName: string&lt;/div&gt;" style="text;strokeColor=none;fillColor=none;align=left;verticalAlign=top;spacingLeft=4;spacingRight=4;overflow=hidden;rotatable=0;points=[[0,0.5],[1,0.5]];portConstraint=eastwest;whiteSpace=wrap;html=1;" vertex="1" parent="bwHcJ1Ja0ZGtsask7FgL-2">
          <mxGeometry y="26" width="160" height="54" as="geometry" />
        </mxCell>
        <mxCell id="bwHcJ1Ja0ZGtsask7FgL-4" value="" style="line;strokeWidth=1;fillColor=none;align=left;verticalAlign=middle;spacingTop=-1;spacingLeft=3;spacingRight=3;rotatable=0;labelPosition=right;points=[];portConstraint=eastwest;strokeColor=inherit;" vertex="1" parent="bwHcJ1Ja0ZGtsask7FgL-2">
          <mxGeometry y="80" width="160" height="8" as="geometry" />
        </mxCell>
        <mxCell id="bwHcJ1Ja0ZGtsask7FgL-5" value="+ Update(string firstName, string lastName): void" style="text;strokeColor=none;fillColor=none;align=left;verticalAlign=top;spacingLeft=4;spacingRight=4;overflow=hidden;rotatable=0;points=[[0,0.5],[1,0.5]];portConstraint=eastwest;whiteSpace=wrap;html=1;" vertex="1" parent="bwHcJ1Ja0ZGtsask7FgL-2">
          <mxGeometry y="88" width="160" height="52" as="geometry" />
        </mxCell>
        <mxCell id="bwHcJ1Ja0ZGtsask7FgL-6" value="Room" style="swimlane;fontStyle=1;align=center;verticalAlign=top;childLayout=stackLayout;horizontal=1;startSize=26;horizontalStack=0;resizeParent=1;resizeParentMax=0;resizeLast=0;collapsible=1;marginBottom=0;whiteSpace=wrap;html=1;" vertex="1" parent="1">
          <mxGeometry x="940" y="340" width="160" height="128" as="geometry" />
        </mxCell>
        <mxCell id="bwHcJ1Ja0ZGtsask7FgL-7" value="+&amp;nbsp;Number: int&lt;div&gt;+ Type: RoomType&lt;/div&gt;&lt;div&gt;+ Price: Decimal&lt;/div&gt;&lt;div&gt;+ Hotel: Hotel&lt;/div&gt;" style="text;strokeColor=none;fillColor=none;align=left;verticalAlign=top;spacingLeft=4;spacingRight=4;overflow=hidden;rotatable=0;points=[[0,0.5],[1,0.5]];portConstraint=eastwest;whiteSpace=wrap;html=1;" vertex="1" parent="bwHcJ1Ja0ZGtsask7FgL-6">
          <mxGeometry y="26" width="160" height="94" as="geometry" />
        </mxCell>
        <mxCell id="bwHcJ1Ja0ZGtsask7FgL-8" value="" style="line;strokeWidth=1;fillColor=none;align=left;verticalAlign=middle;spacingTop=-1;spacingLeft=3;spacingRight=3;rotatable=0;labelPosition=right;points=[];portConstraint=eastwest;strokeColor=inherit;" vertex="1" parent="bwHcJ1Ja0ZGtsask7FgL-6">
          <mxGeometry y="120" width="160" height="8" as="geometry" />
        </mxCell>
        <mxCell id="bwHcJ1Ja0ZGtsask7FgL-10" value="Hotel" style="swimlane;fontStyle=1;align=center;verticalAlign=top;childLayout=stackLayout;horizontal=1;startSize=26;horizontalStack=0;resizeParent=1;resizeParentMax=0;resizeLast=0;collapsible=1;marginBottom=0;whiteSpace=wrap;html=1;" vertex="1" parent="1">
          <mxGeometry x="70" y="340" width="160" height="170" as="geometry" />
        </mxCell>
        <mxCell id="bwHcJ1Ja0ZGtsask7FgL-11" value="+ Name: string&lt;div&gt;+ Rooms:&amp;nbsp;List&amp;lt;Room&amp;gt;&lt;/div&gt;&lt;div&gt;+ Description: string&lt;/div&gt;" style="text;strokeColor=none;fillColor=none;align=left;verticalAlign=top;spacingLeft=4;spacingRight=4;overflow=hidden;rotatable=0;points=[[0,0.5],[1,0.5]];portConstraint=eastwest;whiteSpace=wrap;html=1;" vertex="1" parent="bwHcJ1Ja0ZGtsask7FgL-10">
          <mxGeometry y="26" width="160" height="64" as="geometry" />
        </mxCell>
        <mxCell id="bwHcJ1Ja0ZGtsask7FgL-12" value="" style="line;strokeWidth=1;fillColor=none;align=left;verticalAlign=middle;spacingTop=-1;spacingLeft=3;spacingRight=3;rotatable=0;labelPosition=right;points=[];portConstraint=eastwest;strokeColor=inherit;" vertex="1" parent="bwHcJ1Ja0ZGtsask7FgL-10">
          <mxGeometry y="90" width="160" height="10" as="geometry" />
        </mxCell>
        <mxCell id="bwHcJ1Ja0ZGtsask7FgL-13" value="+AddRoom(Room room): void&lt;div&gt;+GetHighestRoomNumber(): int&lt;/div&gt;" style="text;strokeColor=none;fillColor=none;align=left;verticalAlign=top;spacingLeft=4;spacingRight=4;overflow=hidden;rotatable=0;points=[[0,0.5],[1,0.5]];portConstraint=eastwest;whiteSpace=wrap;html=1;" vertex="1" parent="bwHcJ1Ja0ZGtsask7FgL-10">
          <mxGeometry y="100" width="160" height="70" as="geometry" />
        </mxCell>
        <mxCell id="bwHcJ1Ja0ZGtsask7FgL-14" value="Reservation" style="swimlane;fontStyle=1;align=center;verticalAlign=top;childLayout=stackLayout;horizontal=1;startSize=26;horizontalStack=0;resizeParent=1;resizeParentMax=0;resizeLast=0;collapsible=1;marginBottom=0;whiteSpace=wrap;html=1;" vertex="1" parent="1">
          <mxGeometry x="630" y="340" width="160" height="180" as="geometry" />
        </mxCell>
        <mxCell id="bwHcJ1Ja0ZGtsask7FgL-15" value="&lt;div&gt;&amp;nbsp;+ Room: int&lt;/div&gt;&lt;div&gt;&amp;nbsp;+ Description: string&lt;/div&gt;&lt;div&gt;&lt;span style=&quot;background-color: transparent; color: light-dark(rgb(0, 0, 0), rgb(255, 255, 255));&quot;&gt;&amp;nbsp;+ StartDate: DateTime&lt;/span&gt;&lt;/div&gt;&lt;div&gt;&amp;nbsp;+ End&lt;span style=&quot;background-color: transparent; color: light-dark(rgb(0, 0, 0), rgb(255, 255, 255));&quot;&gt;Date: DateTime&lt;/span&gt;&lt;/div&gt;&lt;div&gt;&amp;nbsp;+ Hotel: Hotel&lt;/div&gt;&lt;div&gt;&amp;nbsp;+ Client: Client&amp;nbsp;&lt;/div&gt;" style="text;strokeColor=none;fillColor=none;align=left;verticalAlign=top;spacingLeft=4;spacingRight=4;overflow=hidden;rotatable=0;points=[[0,0.5],[1,0.5]];portConstraint=eastwest;whiteSpace=wrap;html=1;" vertex="1" parent="bwHcJ1Ja0ZGtsask7FgL-14">
          <mxGeometry y="26" width="160" height="104" as="geometry" />
        </mxCell>
        <mxCell id="bwHcJ1Ja0ZGtsask7FgL-16" value="" style="line;strokeWidth=1;fillColor=none;align=left;verticalAlign=middle;spacingTop=-1;spacingLeft=3;spacingRight=3;rotatable=0;labelPosition=right;points=[];portConstraint=eastwest;strokeColor=inherit;" vertex="1" parent="bwHcJ1Ja0ZGtsask7FgL-14">
          <mxGeometry y="130" width="160" height="8" as="geometry" />
        </mxCell>
        <mxCell id="bwHcJ1Ja0ZGtsask7FgL-17" value="+ Update(string description): void" style="text;strokeColor=none;fillColor=none;align=left;verticalAlign=top;spacingLeft=4;spacingRight=4;overflow=hidden;rotatable=0;points=[[0,0.5],[1,0.5]];portConstraint=eastwest;whiteSpace=wrap;html=1;" vertex="1" parent="bwHcJ1Ja0ZGtsask7FgL-14">
          <mxGeometry y="138" width="160" height="42" as="geometry" />
        </mxCell>
        <mxCell id="bwHcJ1Ja0ZGtsask7FgL-18" value="ClientService" style="swimlane;fontStyle=1;align=center;verticalAlign=top;childLayout=stackLayout;horizontal=1;startSize=26;horizontalStack=0;resizeParent=1;resizeParentMax=0;resizeLast=0;collapsible=1;marginBottom=0;whiteSpace=wrap;html=1;" vertex="1" parent="1">
          <mxGeometry x="300" y="-40" width="230" height="290" as="geometry" />
        </mxCell>
        <mxCell id="bwHcJ1Ja0ZGtsask7FgL-19" value="+&amp;nbsp;&amp;nbsp;private readonly _clients:&amp;nbsp;&amp;nbsp;List&amp;lt;Client&amp;gt;" style="text;strokeColor=none;fillColor=none;align=left;verticalAlign=top;spacingLeft=4;spacingRight=4;overflow=hidden;rotatable=0;points=[[0,0.5],[1,0.5]];portConstraint=eastwest;whiteSpace=wrap;html=1;" vertex="1" parent="bwHcJ1Ja0ZGtsask7FgL-18">
          <mxGeometry y="26" width="230" height="44" as="geometry" />
        </mxCell>
        <mxCell id="bwHcJ1Ja0ZGtsask7FgL-20" value="" style="line;strokeWidth=1;fillColor=none;align=left;verticalAlign=middle;spacingTop=-1;spacingLeft=3;spacingRight=3;rotatable=0;labelPosition=right;points=[];portConstraint=eastwest;strokeColor=inherit;" vertex="1" parent="bwHcJ1Ja0ZGtsask7FgL-18">
          <mxGeometry y="70" width="230" height="8" as="geometry" />
        </mxCell>
        <mxCell id="bwHcJ1Ja0ZGtsask7FgL-21" value="&lt;div&gt;+ AddClient(Client client): void&lt;/div&gt;&lt;div&gt;+ DeleteClientByFullName(string fullName): void&lt;/div&gt;&lt;div&gt;+ ChangeClientByFullName(string fullName, string newFirstName, string newLastName): void&lt;/div&gt;&lt;div&gt;+ GetClientByFullName(string fullName): Client&lt;/div&gt;&lt;div&gt;+ GetAllClients():&amp;nbsp;&lt;span style=&quot;background-color: transparent; color: light-dark(rgb(0, 0, 0), rgb(255, 255, 255));&quot;&gt;List&amp;lt;Client&amp;gt;&lt;/span&gt;&lt;/div&gt;&lt;div&gt;+ SortClientsByFirstName(): void&lt;/div&gt;&lt;div&gt;+SortClientsByLastName() : void&lt;/div&gt;" style="text;strokeColor=none;fillColor=none;align=left;verticalAlign=top;spacingLeft=4;spacingRight=4;overflow=hidden;rotatable=0;points=[[0,0.5],[1,0.5]];portConstraint=eastwest;whiteSpace=wrap;html=1;" vertex="1" parent="bwHcJ1Ja0ZGtsask7FgL-18">
          <mxGeometry y="78" width="230" height="212" as="geometry" />
        </mxCell>
        <mxCell id="bwHcJ1Ja0ZGtsask7FgL-22" value="RoomService" style="swimlane;fontStyle=1;align=center;verticalAlign=top;childLayout=stackLayout;horizontal=1;startSize=26;horizontalStack=0;resizeParent=1;resizeParentMax=0;resizeLast=0;collapsible=1;marginBottom=0;whiteSpace=wrap;html=1;" vertex="1" parent="1">
          <mxGeometry x="940" y="-40" width="160" height="134" as="geometry" />
        </mxCell>
        <mxCell id="bwHcJ1Ja0ZGtsask7FgL-24" value="" style="line;strokeWidth=1;fillColor=none;align=left;verticalAlign=middle;spacingTop=-1;spacingLeft=3;spacingRight=3;rotatable=0;labelPosition=right;points=[];portConstraint=eastwest;strokeColor=inherit;" vertex="1" parent="bwHcJ1Ja0ZGtsask7FgL-22">
          <mxGeometry y="26" width="160" height="8" as="geometry" />
        </mxCell>
        <mxCell id="bwHcJ1Ja0ZGtsask7FgL-25" value="&lt;span class=&quot;&quot;&gt;+ AddRooms(Hotel hotel, int count, decimal price, RoomType roomType): void&lt;br/&gt;&lt;/span&gt;&lt;span class=&quot;&quot;&gt;+ GetRoom(Hotel hotel, int roomNumber): Room?&lt;/span&gt;" style="text;strokeColor=none;fillColor=none;align=left;verticalAlign=top;spacingLeft=4;spacingRight=4;overflow=hidden;rotatable=0;points=[[0,0.5],[1,0.5]];portConstraint=eastwest;whiteSpace=wrap;html=1;" vertex="1" parent="bwHcJ1Ja0ZGtsask7FgL-22">
          <mxGeometry y="34" width="160" height="100" as="geometry" />
        </mxCell>
        <mxCell id="bwHcJ1Ja0ZGtsask7FgL-26" value="HotelService" style="swimlane;fontStyle=1;align=center;verticalAlign=top;childLayout=stackLayout;horizontal=1;startSize=26;horizontalStack=0;resizeParent=1;resizeParentMax=0;resizeLast=0;collapsible=1;marginBottom=0;whiteSpace=wrap;html=1;" vertex="1" parent="1">
          <mxGeometry x="35" y="-40" width="230" height="190" as="geometry" />
        </mxCell>
        <mxCell id="bwHcJ1Ja0ZGtsask7FgL-27" value="+&amp;nbsp;&amp;nbsp;private readonly hotels:&amp;nbsp;&amp;nbsp;List&amp;lt;Hotel&amp;gt;" style="text;strokeColor=none;fillColor=none;align=left;verticalAlign=top;spacingLeft=4;spacingRight=4;overflow=hidden;rotatable=0;points=[[0,0.5],[1,0.5]];portConstraint=eastwest;whiteSpace=wrap;html=1;" vertex="1" parent="bwHcJ1Ja0ZGtsask7FgL-26">
          <mxGeometry y="26" width="230" height="26" as="geometry" />
        </mxCell>
        <mxCell id="bwHcJ1Ja0ZGtsask7FgL-28" value="" style="line;strokeWidth=1;fillColor=none;align=left;verticalAlign=middle;spacingTop=-1;spacingLeft=3;spacingRight=3;rotatable=0;labelPosition=right;points=[];portConstraint=eastwest;strokeColor=inherit;" vertex="1" parent="bwHcJ1Ja0ZGtsask7FgL-26">
          <mxGeometry y="52" width="230" height="8" as="geometry" />
        </mxCell>
        <mxCell id="bwHcJ1Ja0ZGtsask7FgL-29" value="&lt;div&gt;+ AddHotel(Hotel hotel):&amp;nbsp;&lt;span style=&quot;background-color: transparent; color: light-dark(rgb(0, 0, 0), rgb(255, 255, 255));&quot;&gt;void&lt;/span&gt;&lt;/div&gt;&lt;div&gt;+ DeleteHotelByName(string name): void&lt;/div&gt;&lt;div&gt;&lt;span style=&quot;background-color: transparent; color: light-dark(rgb(0, 0, 0), rgb(255, 255, 255));&quot;&gt;+ GetHotelByName(string name) : Hotel&lt;/span&gt;&lt;/div&gt;&lt;div&gt;+ GetAllHotels():&amp;nbsp;&lt;span style=&quot;background-color: transparent; color: light-dark(rgb(0, 0, 0), rgb(255, 255, 255));&quot;&gt;List&amp;lt;Hotel&amp;gt;&lt;/span&gt;&lt;/div&gt;" style="text;strokeColor=none;fillColor=none;align=left;verticalAlign=top;spacingLeft=4;spacingRight=4;overflow=hidden;rotatable=0;points=[[0,0.5],[1,0.5]];portConstraint=eastwest;whiteSpace=wrap;html=1;" vertex="1" parent="bwHcJ1Ja0ZGtsask7FgL-26">
          <mxGeometry y="60" width="230" height="130" as="geometry" />
        </mxCell>
        <mxCell id="bwHcJ1Ja0ZGtsask7FgL-30" value="ReservationService" style="swimlane;fontStyle=1;align=center;verticalAlign=top;childLayout=stackLayout;horizontal=1;startSize=26;horizontalStack=0;resizeParent=1;resizeParentMax=0;resizeLast=0;collapsible=1;marginBottom=0;whiteSpace=wrap;html=1;" vertex="1" parent="1">
          <mxGeometry x="560" y="-40" width="300" height="240" as="geometry" />
        </mxCell>
        <mxCell id="bwHcJ1Ja0ZGtsask7FgL-31" value="+&amp;nbsp;&amp;nbsp;private readonly _reservations:&amp;nbsp;&amp;nbsp;List&amp;lt;Reservationt&amp;gt;" style="text;strokeColor=none;fillColor=none;align=left;verticalAlign=top;spacingLeft=4;spacingRight=4;overflow=hidden;rotatable=0;points=[[0,0.5],[1,0.5]];portConstraint=eastwest;whiteSpace=wrap;html=1;" vertex="1" parent="bwHcJ1Ja0ZGtsask7FgL-30">
          <mxGeometry y="26" width="300" height="26" as="geometry" />
        </mxCell>
        <mxCell id="bwHcJ1Ja0ZGtsask7FgL-32" value="" style="line;strokeWidth=1;fillColor=none;align=left;verticalAlign=middle;spacingTop=-1;spacingLeft=3;spacingRight=3;rotatable=0;labelPosition=right;points=[];portConstraint=eastwest;strokeColor=inherit;" vertex="1" parent="bwHcJ1Ja0ZGtsask7FgL-30">
          <mxGeometry y="52" width="300" height="8" as="geometry" />
        </mxCell>
        <mxCell id="bwHcJ1Ja0ZGtsask7FgL-33" value="&lt;div&gt;+ AddReservation(Reservation reservation): void&lt;/div&gt;&lt;div&gt;+ CancelReservation(Hotel hotel, DateTime startDate, DateTime endDate, int roomNumber): void&lt;/div&gt;&lt;div&gt;+ ChangeReservationDescription(Hotel hotel, DateTime startDate, DateTime endDate, int roomNumber, string description): void&lt;/div&gt;&lt;div&gt;+ GetAllReservationsByFullName(string fullName): List&amp;lt;Reservation&amp;gt;&lt;/div&gt;&lt;div&gt;+ GetAllReservationsByHotelName(string hotelName): List&amp;lt;Reservation&amp;gt;&lt;/div&gt;&lt;div&gt;+ GetAllReservationsByRoomNumber(int roomNumber, Hotel hotel): List&amp;lt;Reservation&amp;gt;&lt;/div&gt;" style="text;strokeColor=none;fillColor=none;align=left;verticalAlign=top;spacingLeft=4;spacingRight=4;overflow=hidden;rotatable=0;points=[[0,0.5],[1,0.5]];portConstraint=eastwest;whiteSpace=wrap;html=1;" vertex="1" parent="bwHcJ1Ja0ZGtsask7FgL-30">
          <mxGeometry y="60" width="300" height="180" as="geometry" />
        </mxCell>
        <mxCell id="bwHcJ1Ja0ZGtsask7FgL-34" value="IClientService" style="swimlane;fontStyle=1;align=center;verticalAlign=top;childLayout=stackLayout;horizontal=1;startSize=26;horizontalStack=0;resizeParent=1;resizeParentMax=0;resizeLast=0;collapsible=1;marginBottom=0;whiteSpace=wrap;html=1;" vertex="1" parent="1">
          <mxGeometry x="300" y="-370" width="210" height="246" as="geometry" />
        </mxCell>
        <mxCell id="bwHcJ1Ja0ZGtsask7FgL-36" value="" style="line;strokeWidth=1;fillColor=none;align=left;verticalAlign=middle;spacingTop=-1;spacingLeft=3;spacingRight=3;rotatable=0;labelPosition=right;points=[];portConstraint=eastwest;strokeColor=inherit;" vertex="1" parent="bwHcJ1Ja0ZGtsask7FgL-34">
          <mxGeometry y="26" width="210" height="8" as="geometry" />
        </mxCell>
        <mxCell id="bwHcJ1Ja0ZGtsask7FgL-37" value="&lt;div&gt;+ AddClient(Client client): void&lt;/div&gt;&lt;div&gt;+ DeleteClientByFullName(string fullName): void&lt;/div&gt;&lt;div&gt;+ ChangeClientByFullName(string fullName, string newFirstName, string newLastName): void&lt;/div&gt;&lt;div&gt;+ GetClientByFullName(string fullName): Client&lt;/div&gt;&lt;div&gt;+ GetAllClients():&amp;nbsp;&lt;span style=&quot;background-color: transparent; color: light-dark(rgb(0, 0, 0), rgb(255, 255, 255));&quot;&gt;List&amp;lt;Client&amp;gt;&lt;/span&gt;&lt;/div&gt;&lt;div&gt;+ SortClientsByFirstName(): void&lt;/div&gt;&lt;div&gt;+SortClientsByLastName() : void&lt;/div&gt;" style="text;strokeColor=none;fillColor=none;align=left;verticalAlign=top;spacingLeft=4;spacingRight=4;overflow=hidden;rotatable=0;points=[[0,0.5],[1,0.5]];portConstraint=eastwest;whiteSpace=wrap;html=1;" vertex="1" parent="bwHcJ1Ja0ZGtsask7FgL-34">
          <mxGeometry y="34" width="210" height="212" as="geometry" />
        </mxCell>
        <mxCell id="bwHcJ1Ja0ZGtsask7FgL-38" value="IHotelService" style="swimlane;fontStyle=1;align=center;verticalAlign=top;childLayout=stackLayout;horizontal=1;startSize=26;horizontalStack=0;resizeParent=1;resizeParentMax=0;resizeLast=0;collapsible=1;marginBottom=0;whiteSpace=wrap;html=1;" vertex="1" parent="1">
          <mxGeometry x="35" y="-360" width="230" height="164" as="geometry" />
        </mxCell>
        <mxCell id="bwHcJ1Ja0ZGtsask7FgL-40" value="" style="line;strokeWidth=1;fillColor=none;align=left;verticalAlign=middle;spacingTop=-1;spacingLeft=3;spacingRight=3;rotatable=0;labelPosition=right;points=[];portConstraint=eastwest;strokeColor=inherit;" vertex="1" parent="bwHcJ1Ja0ZGtsask7FgL-38">
          <mxGeometry y="26" width="230" height="8" as="geometry" />
        </mxCell>
        <mxCell id="bwHcJ1Ja0ZGtsask7FgL-41" value="&lt;div&gt;+ AddHotel(Hotel hotel):&amp;nbsp;&lt;span style=&quot;background-color: transparent; color: light-dark(rgb(0, 0, 0), rgb(255, 255, 255));&quot;&gt;void&lt;/span&gt;&lt;/div&gt;&lt;div&gt;+ DeleteHotelByName(string name): void&lt;/div&gt;&lt;div&gt;&lt;span style=&quot;background-color: transparent; color: light-dark(rgb(0, 0, 0), rgb(255, 255, 255));&quot;&gt;+ GetHotelByName(string name) : Hotel&lt;/span&gt;&lt;/div&gt;&lt;div&gt;+ GetAllHotels():&amp;nbsp;&lt;span style=&quot;background-color: transparent; color: light-dark(rgb(0, 0, 0), rgb(255, 255, 255));&quot;&gt;List&amp;lt;Hotel&amp;gt;&lt;/span&gt;&lt;/div&gt;" style="text;strokeColor=none;fillColor=none;align=left;verticalAlign=top;spacingLeft=4;spacingRight=4;overflow=hidden;rotatable=0;points=[[0,0.5],[1,0.5]];portConstraint=eastwest;whiteSpace=wrap;html=1;" vertex="1" parent="bwHcJ1Ja0ZGtsask7FgL-38">
          <mxGeometry y="34" width="230" height="130" as="geometry" />
        </mxCell>
        <mxCell id="bwHcJ1Ja0ZGtsask7FgL-42" value="IReservationService" style="swimlane;fontStyle=1;align=center;verticalAlign=top;childLayout=stackLayout;horizontal=1;startSize=26;horizontalStack=0;resizeParent=1;resizeParentMax=0;resizeLast=0;collapsible=1;marginBottom=0;whiteSpace=wrap;html=1;" vertex="1" parent="1">
          <mxGeometry x="560" y="-360" width="300" height="214" as="geometry" />
        </mxCell>
        <mxCell id="bwHcJ1Ja0ZGtsask7FgL-44" value="" style="line;strokeWidth=1;fillColor=none;align=left;verticalAlign=middle;spacingTop=-1;spacingLeft=3;spacingRight=3;rotatable=0;labelPosition=right;points=[];portConstraint=eastwest;strokeColor=inherit;" vertex="1" parent="bwHcJ1Ja0ZGtsask7FgL-42">
          <mxGeometry y="26" width="300" height="8" as="geometry" />
        </mxCell>
        <mxCell id="bwHcJ1Ja0ZGtsask7FgL-45" value="&lt;div&gt;+ AddReservation(Reservation reservation): void&lt;/div&gt;&lt;div&gt;+ CancelReservation(Hotel hotel, DateTime startDate, DateTime endDate, int roomNumber): void&lt;/div&gt;&lt;div&gt;+ ChangeReservationDescription(Hotel hotel, DateTime startDate, DateTime endDate, int roomNumber, string description): void&lt;/div&gt;&lt;div&gt;+ GetAllReservationsByFullName(string fullName): List&amp;lt;Reservation&amp;gt;&lt;/div&gt;&lt;div&gt;+ GetAllReservationsByHotelName(string hotelName): List&amp;lt;Reservation&amp;gt;&lt;/div&gt;&lt;div&gt;+ GetAllReservationsByRoomNumber(int roomNumber, Hotel hotel): List&amp;lt;Reservation&amp;gt;&lt;/div&gt;" style="text;strokeColor=none;fillColor=none;align=left;verticalAlign=top;spacingLeft=4;spacingRight=4;overflow=hidden;rotatable=0;points=[[0,0.5],[1,0.5]];portConstraint=eastwest;whiteSpace=wrap;html=1;" vertex="1" parent="bwHcJ1Ja0ZGtsask7FgL-42">
          <mxGeometry y="34" width="300" height="180" as="geometry" />
        </mxCell>
        <mxCell id="bwHcJ1Ja0ZGtsask7FgL-46" value="IRoomService" style="swimlane;fontStyle=1;align=center;verticalAlign=top;childLayout=stackLayout;horizontal=1;startSize=26;horizontalStack=0;resizeParent=1;resizeParentMax=0;resizeLast=0;collapsible=1;marginBottom=0;whiteSpace=wrap;html=1;" vertex="1" parent="1">
          <mxGeometry x="940" y="-314" width="160" height="134" as="geometry" />
        </mxCell>
        <mxCell id="bwHcJ1Ja0ZGtsask7FgL-47" value="" style="line;strokeWidth=1;fillColor=none;align=left;verticalAlign=middle;spacingTop=-1;spacingLeft=3;spacingRight=3;rotatable=0;labelPosition=right;points=[];portConstraint=eastwest;strokeColor=inherit;" vertex="1" parent="bwHcJ1Ja0ZGtsask7FgL-46">
          <mxGeometry y="26" width="160" height="8" as="geometry" />
        </mxCell>
        <mxCell id="bwHcJ1Ja0ZGtsask7FgL-48" value="&lt;span class=&quot;&quot;&gt;+ AddRooms(Hotel hotel, int count, decimal price, RoomType roomType): void&lt;br/&gt;&lt;/span&gt;&lt;span class=&quot;&quot;&gt;+ GetRoom(Hotel hotel, int roomNumber): Room?&lt;/span&gt;" style="text;strokeColor=none;fillColor=none;align=left;verticalAlign=top;spacingLeft=4;spacingRight=4;overflow=hidden;rotatable=0;points=[[0,0.5],[1,0.5]];portConstraint=eastwest;whiteSpace=wrap;html=1;" vertex="1" parent="bwHcJ1Ja0ZGtsask7FgL-46">
          <mxGeometry y="34" width="160" height="100" as="geometry" />
        </mxCell>
        <mxCell id="bwHcJ1Ja0ZGtsask7FgL-49" value="&lt;p style=&quot;margin:0px;margin-top:4px;text-align:center;text-decoration:underline;&quot;&gt;&lt;b&gt;RoomType:Enum&lt;/b&gt;&lt;/p&gt;&lt;hr size=&quot;1&quot; style=&quot;border-style:solid;&quot;&gt;&lt;p style=&quot;margin:0px;margin-left:8px;&quot;&gt;field1 = value1&lt;br&gt;field2 = value2&lt;br&gt;field3 = value3&lt;/p&gt;" style="verticalAlign=top;align=left;overflow=fill;html=1;whiteSpace=wrap;" vertex="1" parent="1">
          <mxGeometry x="1180" y="368" width="160" height="90" as="geometry" />
        </mxCell>
        <mxCell id="bwHcJ1Ja0ZGtsask7FgL-50" value="" style="endArrow=open;endFill=1;endSize=12;html=1;rounded=0;exitX=0;exitY=0.5;exitDx=0;exitDy=0;entryX=1;entryY=0.5;entryDx=0;entryDy=0;" edge="1" parent="1" source="bwHcJ1Ja0ZGtsask7FgL-49" target="bwHcJ1Ja0ZGtsask7FgL-7">
          <mxGeometry width="160" relative="1" as="geometry">
            <mxPoint x="1081" y="490" as="sourcePoint" />
            <mxPoint x="1241" y="490" as="targetPoint" />
          </mxGeometry>
        </mxCell>
        <mxCell id="bwHcJ1Ja0ZGtsask7FgL-51" value="" style="endArrow=diamondThin;endFill=0;endSize=24;html=1;rounded=0;exitX=0.5;exitY=0;exitDx=0;exitDy=0;" edge="1" parent="1" source="bwHcJ1Ja0ZGtsask7FgL-10" target="bwHcJ1Ja0ZGtsask7FgL-29">
          <mxGeometry width="160" relative="1" as="geometry">
            <mxPoint x="280" y="110" as="sourcePoint" />
            <mxPoint x="440" y="110" as="targetPoint" />
          </mxGeometry>
        </mxCell>
        <mxCell id="bwHcJ1Ja0ZGtsask7FgL-52" value="" style="endArrow=diamondThin;endFill=0;endSize=24;html=1;rounded=0;exitX=0.5;exitY=0;exitDx=0;exitDy=0;" edge="1" parent="1" source="bwHcJ1Ja0ZGtsask7FgL-2" target="bwHcJ1Ja0ZGtsask7FgL-21">
          <mxGeometry width="160" relative="1" as="geometry">
            <mxPoint x="160" y="350" as="sourcePoint" />
            <mxPoint x="160" y="160" as="targetPoint" />
          </mxGeometry>
        </mxCell>
        <mxCell id="bwHcJ1Ja0ZGtsask7FgL-53" value="" style="endArrow=diamondThin;endFill=0;endSize=24;html=1;rounded=0;exitX=0.5;exitY=0;exitDx=0;exitDy=0;entryX=0.497;entryY=1.006;entryDx=0;entryDy=0;entryPerimeter=0;" edge="1" parent="1" source="bwHcJ1Ja0ZGtsask7FgL-14" target="bwHcJ1Ja0ZGtsask7FgL-33">
          <mxGeometry width="160" relative="1" as="geometry">
            <mxPoint x="425" y="365" as="sourcePoint" />
            <mxPoint x="425" y="260" as="targetPoint" />
          </mxGeometry>
        </mxCell>
        <mxCell id="bwHcJ1Ja0ZGtsask7FgL-54" value="" style="endArrow=block;endSize=16;endFill=0;html=1;rounded=0;exitX=0.5;exitY=0;exitDx=0;exitDy=0;entryX=0.504;entryY=0.985;entryDx=0;entryDy=0;entryPerimeter=0;" edge="1" parent="1" source="bwHcJ1Ja0ZGtsask7FgL-26" target="bwHcJ1Ja0ZGtsask7FgL-41">
          <mxGeometry width="160" relative="1" as="geometry">
            <mxPoint x="140" y="-100" as="sourcePoint" />
            <mxPoint x="300" y="-100" as="targetPoint" />
          </mxGeometry>
        </mxCell>
        <mxCell id="bwHcJ1Ja0ZGtsask7FgL-55" value="" style="endArrow=block;endSize=16;endFill=0;html=1;rounded=0;exitX=0.5;exitY=0;exitDx=0;exitDy=0;entryX=0.543;entryY=1.009;entryDx=0;entryDy=0;entryPerimeter=0;" edge="1" parent="1" source="bwHcJ1Ja0ZGtsask7FgL-18" target="bwHcJ1Ja0ZGtsask7FgL-37">
          <mxGeometry width="160" relative="1" as="geometry">
            <mxPoint x="160" y="-30" as="sourcePoint" />
            <mxPoint x="161" y="-188" as="targetPoint" />
          </mxGeometry>
        </mxCell>
        <mxCell id="bwHcJ1Ja0ZGtsask7FgL-56" value="" style="endArrow=block;endSize=16;endFill=0;html=1;rounded=0;exitX=0.5;exitY=0;exitDx=0;exitDy=0;entryX=0.493;entryY=1.006;entryDx=0;entryDy=0;entryPerimeter=0;" edge="1" parent="1" source="bwHcJ1Ja0ZGtsask7FgL-30" target="bwHcJ1Ja0ZGtsask7FgL-45">
          <mxGeometry width="160" relative="1" as="geometry">
            <mxPoint x="425" y="-30" as="sourcePoint" />
            <mxPoint x="424" y="-112" as="targetPoint" />
          </mxGeometry>
        </mxCell>
        <mxCell id="bwHcJ1Ja0ZGtsask7FgL-57" value="" style="endArrow=block;endSize=16;endFill=0;html=1;rounded=0;exitX=0.5;exitY=0;exitDx=0;exitDy=0;entryX=0.506;entryY=0.97;entryDx=0;entryDy=0;entryPerimeter=0;" edge="1" parent="1" source="bwHcJ1Ja0ZGtsask7FgL-22" target="bwHcJ1Ja0ZGtsask7FgL-48">
          <mxGeometry width="160" relative="1" as="geometry">
            <mxPoint x="720" y="-30" as="sourcePoint" />
            <mxPoint x="718" y="-135" as="targetPoint" />
          </mxGeometry>
        </mxCell>
        <mxCell id="bwHcJ1Ja0ZGtsask7FgL-58" value="" style="endArrow=open;endFill=1;endSize=12;html=1;rounded=0;exitX=0.5;exitY=0;exitDx=0;exitDy=0;entryX=0.667;entryY=0.994;entryDx=0;entryDy=0;entryPerimeter=0;" edge="1" parent="1" source="bwHcJ1Ja0ZGtsask7FgL-6" target="bwHcJ1Ja0ZGtsask7FgL-33">
          <mxGeometry width="160" relative="1" as="geometry">
            <mxPoint x="880" y="300" as="sourcePoint" />
            <mxPoint x="760" y="300" as="targetPoint" />
            <Array as="points">
              <mxPoint x="1020" y="300" />
              <mxPoint x="760" y="300" />
            </Array>
          </mxGeometry>
        </mxCell>
        <mxCell id="bwHcJ1Ja0ZGtsask7FgL-59" value="" style="text;whiteSpace=wrap;html=1;" vertex="1" parent="1">
          <mxGeometry x="410" y="320" width="60" height="50" as="geometry" />
        </mxCell>
        <mxCell id="bwHcJ1Ja0ZGtsask7FgL-60" value="" style="endArrow=open;endFill=1;endSize=12;html=1;rounded=0;exitX=1;exitY=0.5;exitDx=0;exitDy=0;entryX=0.06;entryY=0.983;entryDx=0;entryDy=0;entryPerimeter=0;" edge="1" parent="1" source="bwHcJ1Ja0ZGtsask7FgL-3" target="bwHcJ1Ja0ZGtsask7FgL-33">
          <mxGeometry width="160" relative="1" as="geometry">
            <mxPoint x="660" y="280" as="sourcePoint" />
            <mxPoint x="580" y="280" as="targetPoint" />
            <Array as="points">
              <mxPoint x="580" y="408" />
            </Array>
          </mxGeometry>
        </mxCell>
        <mxCell id="bwHcJ1Ja0ZGtsask7FgL-61" value="" style="endArrow=open;endFill=1;endSize=12;html=1;rounded=0;exitX=0.481;exitY=1;exitDx=0;exitDy=0;exitPerimeter=0;entryX=0.183;entryY=0.994;entryDx=0;entryDy=0;entryPerimeter=0;" edge="1" parent="1" source="bwHcJ1Ja0ZGtsask7FgL-13" target="bwHcJ1Ja0ZGtsask7FgL-33">
          <mxGeometry width="160" relative="1" as="geometry">
            <mxPoint x="430" y="320" as="sourcePoint" />
            <mxPoint x="610" y="240" as="targetPoint" />
            <Array as="points">
              <mxPoint x="147" y="600" />
              <mxPoint x="615" y="600" />
            </Array>
          </mxGeometry>
        </mxCell>
        <mxCell id="bwHcJ1Ja0ZGtsask7FgL-62" value="" style="endArrow=open;endFill=1;endSize=12;html=1;rounded=0;exitX=0.5;exitY=0;exitDx=0;exitDy=0;entryX=1;entryY=0.5;entryDx=0;entryDy=0;" edge="1" parent="1" source="bwHcJ1Ja0ZGtsask7FgL-49" target="bwHcJ1Ja0ZGtsask7FgL-25">
          <mxGeometry width="160" relative="1" as="geometry">
            <mxPoint x="1190" y="423" as="sourcePoint" />
            <mxPoint x="1260" y="30" as="targetPoint" />
            <Array as="points">
              <mxPoint x="1260" y="44" />
            </Array>
          </mxGeometry>
        </mxCell>
        <mxCell id="bwHcJ1Ja0ZGtsask7FgL-64" value="" style="endArrow=open;endFill=1;endSize=12;html=1;rounded=0;exitX=0.481;exitY=1;exitDx=0;exitDy=0;exitPerimeter=0;entryX=0.993;entryY=0.064;entryDx=0;entryDy=0;entryPerimeter=0;" edge="1" parent="1" target="bwHcJ1Ja0ZGtsask7FgL-25">
          <mxGeometry width="160" relative="1" as="geometry">
            <mxPoint x="110" y="511" as="sourcePoint" />
            <mxPoint x="1410" y="-70" as="targetPoint" />
            <Array as="points">
              <mxPoint x="110" y="650" />
              <mxPoint x="1480" y="650" />
              <mxPoint x="1480" />
            </Array>
          </mxGeometry>
        </mxCell>
        <mxCell id="bwHcJ1Ja0ZGtsask7FgL-65" value="" style="endArrow=diamondThin;endFill=1;endSize=24;html=1;rounded=0;exitX=0.5;exitY=1;exitDx=0;exitDy=0;entryX=0.398;entryY=1.014;entryDx=0;entryDy=0;entryPerimeter=0;" edge="1" parent="1" source="bwHcJ1Ja0ZGtsask7FgL-6" target="bwHcJ1Ja0ZGtsask7FgL-13">
          <mxGeometry width="160" relative="1" as="geometry">
            <mxPoint x="510" y="460" as="sourcePoint" />
            <mxPoint x="130" y="620" as="targetPoint" />
            <Array as="points">
              <mxPoint x="1020" y="630" />
              <mxPoint x="134" y="630" />
            </Array>
          </mxGeometry>
        </mxCell>
        <mxCell id="bwHcJ1Ja0ZGtsask7FgL-66" value="" style="endArrow=diamondThin;endFill=0;endSize=24;html=1;rounded=0;exitX=1;exitY=0.5;exitDx=0;exitDy=0;" edge="1" parent="1" source="bwHcJ1Ja0ZGtsask7FgL-5">
          <mxGeometry width="160" relative="1" as="geometry">
            <mxPoint x="425" y="365" as="sourcePoint" />
            <mxPoint x="630" y="470" as="targetPoint" />
          </mxGeometry>
        </mxCell>
        <mxCell id="bwHcJ1Ja0ZGtsask7FgL-67" value="" style="endArrow=diamondThin;endFill=0;endSize=24;html=1;rounded=0;exitX=0.79;exitY=1.024;exitDx=0;exitDy=0;exitPerimeter=0;entryX=0.485;entryY=1.066;entryDx=0;entryDy=0;entryPerimeter=0;" edge="1" parent="1" source="bwHcJ1Ja0ZGtsask7FgL-13" target="bwHcJ1Ja0ZGtsask7FgL-17">
          <mxGeometry width="160" relative="1" as="geometry">
            <mxPoint x="505" y="479" as="sourcePoint" />
            <mxPoint x="760" y="570" as="targetPoint" />
            <Array as="points">
              <mxPoint x="196" y="570" />
              <mxPoint x="708" y="570" />
            </Array>
          </mxGeometry>
        </mxCell>
      </root>
    </mxGraphModel>
  </diagram>
</mxfile>
